:version 1.10
:name ASF
:units
  mass 1
  length 1
  angle deg
:documentation
  ASF file generated by Kaydara
:root
  axis xyz
  order  tx ty tz rx ry rz
  position 0 0 0
  orientation 0 0 0
:bonedata
  begin
    id 1
    name RightUpLegDummy
    direction -0.65628 -0.754516 0.00165102
    length 4.76918
    axis 0 0 0 xyz
  end
  begin
    id 2
    name RightUpLeg
    direction -0.145584 -0.923362 0.355256
    length 17.9961
    axis -24.7611 -13.1006 1.78531 xyz
    dof rx ry rz
  end
  begin
    id 3
    name RightLeg
    direction 0.263379 0.172355 -0.949171
    length 13.3386
    axis 89.6202 -21.1929 12.3855 xyz
    dof rx ry rz
  end
  begin
    id 4
    name RightFoot
    direction 0.224283 -0.968777 -0.105675
    length 5.86697
    axis 56.995 -39.6905 17.3365 xyz
    dof rx ry rz
  end
  begin
    id 5
    name RightToes
    direction -0.0806345 -0.9037 0.420506
    length 4.75197
    axis 146.825 -39.7828 17.6019 xyz
    dof rx ry rz
  end
  begin
    id 6
    name SpineDummy
    direction -3.39852e-014 1 9.33296e-014
    length 8.13779
    axis 0 0 0 xyz
  end
  begin
    id 7
    name Spine
    direction -0.156609 0.733703 0.661176
    length 7.14978
    axis 41.2365 5.68757 17.0844 xyz
    dof rx ry rz
  end
  begin
    id 8
    name Spine1
    direction 0 0 0
    length 0
    axis 42.8809 47.8308 -3.36039 xyz
    dof rx ry rz
  end
  begin
    id 9
    name HEadDummy
    direction 0.546431 0.701947 0.456819
    length 3.55512
    axis 42.8809 47.8308 -3.36039 xyz
  end
  begin
    id 10
    name HEad
    direction 0.23444 0.828559 0.508457
    length 7.35827
    axis 51.1864 49.2662 27.4903 xyz
    dof rx ry rz
  end
  begin
    id 11
    name LeftShoulder1Dummy
    direction 0.431183 0.475873 -0.766568
    length 2.49352
    axis 42.8809 47.8308 -3.36039 xyz
  end
  begin
    id 12
    name LeftShoulder1
    direction 0.268187 -0.383402 -0.883786
    length 4.48604
    axis -119.517 0.106469 35.1736 xyz
    dof rx ry rz
  end
  begin
    id 13
    name LeftArm
    direction 0.380567 -0.703221 -0.600541
    length 10.1142
    axis -5.41825 36.2925 7.8293 xyz
    dof rx ry rz
  end
  begin
    id 14
    name LeftForeArm
    direction 0.541071 -0.732356 -0.413396
    length 9.39839
    axis 4.65387 33.7604 7.81644 xyz
    dof rx ry rz
  end
  begin
    id 15
    name LeftHand
    direction 0.847511 -0.389379 -0.360707
    length 3.66142
    axis 7.65593 21.1436 -24.6758 xyz
    dof rx ry rz
  end
  begin
    id 16
    name RightShoulderDummy
    direction -0.692546 0.541855 0.476208
    length 2.49352
    axis 42.8809 47.8308 -3.36039 xyz
  end
  begin
    id 17
    name RightShoulder
    direction -0.870808 -0.316653 0.376065
    length 4.48602
    axis 141.571 51.133 -100.254 xyz
    dof rx ry rz
  end
  begin
    id 18
    name RightArm
    direction 0.366897 -0.87275 0.322015
    length 10.1142
    axis 92.3258 71.2036 138.917 xyz
    dof rx ry rz
  end
  begin
    id 19
    name RightForeArm
    direction 0.702487 -0.694568 0.155197
    length 9.39835
    axis 153.863 41.5092 -176.604 xyz
    dof rx ry rz
  end
  begin
    id 20
    name RightHand
    direction 0.79502 -0.601276 0.0800636
    length 3.66142
    axis 154.247 4.59222 142.9 xyz
    dof rx ry rz
  end
  begin
    id 21
    name LeftUpLegDummy
    direction 0.65628 -0.754516 0.00165102
    length 4.76919
    axis 0 0 0 xyz
  end
  begin
    id 22
    name LeftUpLeg
    direction -0.1277 -0.689368 0.713067
    length 17.9961
    axis -48.3385 -17.8675 0.791927 xyz
    dof rx ry rz
  end
  begin
    id 23
    name LeftLeg
    direction 0.109849 -0.991246 -0.0732378
    length 13.3386
    axis -2.05791 -7.30784 1.72042 xyz
    dof rx ry rz
  end
  begin
    id 24
    name LeftFoot
    direction 0.0448355 -0.272614 0.961078
    length 5.86697
    axis -18.7733 -7.89606 10.2113 xyz
    dof rx ry rz
  end
  begin
    id 25
    name LeftToes
    direction -0.18506 0.293668 0.937823
    length 4.75197
    axis 71.2267 -7.89606 10.2113 xyz
    dof rx ry rz
  end
:hierarchy
  begin
    root RightUpLegDummy SpineDummy LeftUpLegDummy
    RightUpLegDummy RightUpLeg
    RightUpLeg RightLeg
    RightLeg RightFoot
    RightFoot RightToes
    SpineDummy Spine
    Spine Spine1
    Spine1 HEadDummy LeftShoulder1Dummy RightShoulderDummy
    HEadDummy HEad
    LeftShoulder1Dummy LeftShoulder1
    LeftShoulder1 LeftArm
    LeftArm LeftForeArm
    LeftForeArm LeftHand
    RightShoulderDummy RightShoulder
    RightShoulder RightArm
    RightArm RightForeArm
    RightForeArm RightHand
    LeftUpLegDummy LeftUpLeg
    LeftUpLeg LeftLeg
    LeftLeg LeftFoot
    LeftFoot LeftToes
  end

:SAMPLES-PER-SECOND 30
:FULLY-SPECIFIED
:DEGREES
656
root  0.333553 37.0371 -49.6849 -11.7465 -37.2234 7.72998
RightUpLeg  0.637326 12.3725 -0.0575501
RightLeg  -38.0707 -12.8118 -3.20729
RightFoot  25.6036 -0.0518101 -9.97864
RightToes  -1.27222e-014 -6.36111e-015 6.36111e-015
Spine  -35.1798 -16.6996 -18.075
Spine1  6.75238 -10.459 34.0003
HEad  9.31739 10.0003 -11.5518
LeftShoulder1  6.36111e-015 -1.33558e-015 6.49777e-015
LeftArm  16.6178 -10.7721 -48.3016
LeftForeArm  -56.7783 -33.6199 8.72898
LeftHand  -4.16538 -11.6406 -13.7388
RightShoulder  -4.77083e-015 -6.36111e-015 -3.18055e-015
RightArm  35.3715 -41.5911 -8.00951
RightForeArm  -73.7945 -4.72958 -8.42146
RightHand  -1.34971 7.99437 -0.797117
LeftUpLeg  43.6116 25.2491 8.09829
LeftLeg  -8.10607 -1.88437 -1.07561
LeftFoot  -12.5168 1.05131 -5.49821
LeftToes  9.54166e-015 4.2066e-011 -8.07781e-011
657
root  -0.131807 37.1841 -49.0948 -10.882 -35.723 7.24236
RightUpLeg  -2.5112 12.4585 -1.29923
RightLeg  -42.1484 -14.2918 -2.16336
RightFoot  26.9432 1.54466 -12.4656
RightToes  -1.27222e-014 -6.36111e-015 6.36111e-015
Spine  -35.7915 -18.2819 -18.5114
Spine1  7.33923 -11.3817 36.7908
HEad  8.20916 12.3582 -13.4518
LeftShoulder1  6.36111e-015 -1.33558e-015 6.49777e-015
LeftArm  15.7186 -10.4527 -46.6686
LeftForeArm  -55.7472 -30.2512 3.92559
LeftHand  -4.4919 -12.9789 -14.4261
RightShoulder  -4.77083e-015 -6.36111e-015 -3.18055e-015
RightArm  40.4463 -43.5009 -14.7338
RightForeArm  -76.5601 0.830774 -17.1752
RightHand  -1.46087 7.86468 1.5112
LeftUpLeg  45.463 24.825 8.80076
LeftLeg  -9.97613 -3.93673 -1.17287
LeftFoot  -12.3033 1.00536 -5.19179
LeftToes  9.54166e-015 4.2066e-011 -8.07781e-011
658
root  -0.57814 37.405 -48.5212 -9.86597 -34.1262 6.5522
RightUpLeg  -4.94345 12.8566 -2.52323
RightLeg  -48.4106 -14.3311 -1.86457
RightFoot  27.6245 2.58556 -13.9978
RightToes  -1.27222e-014 -6.36111e-015 6.36111e-015
Spine  -36.2961 -19.859 -18.2948
Spine1  7.1004 -12.5907 39.7204
HEad  7.47033 15.3266 -14.7917
LeftShoulder1  6.36111e-015 -1.33558e-015 6.49777e-015
LeftArm  15.4145 -8.92542 -44.356
LeftForeArm  -55.3606 -29.6919 3.27556
LeftHand  -4.3665 -12.4563 -14.1522
RightShoulder  -4.77083e-015 -6.36111e-015 -3.18055e-015
RightArm  43.7903 -42.9553 -18.0112
RightForeArm  -78.4045 3.00405 -21.483
RightHand  -1.67809 8.77109 2.88166
LeftUpLeg  47.6475 24.2243 9.80465
LeftLeg  -12.7384 -6.17435 -1.20937
LeftFoot  -11.3041 0.973929 -4.79992
LeftToes  9.54166e-015 4.2066e-011 -8.07781e-011
659
root  -1.05084 37.5399 -47.9806 -8.75959 -33.051 6.04225
RightUpLeg  -6.64939 13.649 -3.67569
RightLeg  -57.2293 -14.3646 -1.2066
RightFoot  25.827 3.01518 -14.2365
RightToes  -1.27222e-014 -6.36111e-015 6.36111e-015
Spine  -36.6863 -21.1674 -18.1376
Spine1  6.67993 -13.6125 41.9896
HEad  7.53583 17.2886 -15.3409
LeftShoulder1  6.36111e-015 -1.33558e-015 6.49777e-015
LeftArm  15.1547 -6.77212 -42.2956
LeftForeArm  -53.8304 -30.4531 4.74561
LeftHand  -4.12786 -11.4664 -13.4366
RightShoulder  -4.77083e-015 -6.36111e-015 -3.18055e-015
RightArm  47.1033 -41.5689 -21.0784
RightForeArm  -80.6372 3.72502 -22.3684
RightHand  -1.84586 9.69653 3.53109
LeftUpLeg  49.178 23.4295 10.1498
LeftLeg  -15.0599 -7.08946 -1.42936
LeftFoot  -10.593 0.985314 -4.71336
LeftToes  9.54166e-015 4.2066e-011 -8.07781e-011
660
root  -1.52062 37.6529 -47.4166 -7.39536 -32.4676 5.81627
RightUpLeg  -8.08418 14.4815 -4.62727
RightLeg  -69.0649 -14.5375 0.723572
RightFoot  25.9617 3.83248 -15.3875
RightToes  -1.27222e-014 -6.36111e-015 6.36111e-015
Spine  -37.4281 -21.7809 -17.7278
Spine1  6.40342 -14.0563 43.51
HEad  7.67979 18.0692 -15.6698
LeftShoulder1  6.36111e-015 -1.33558e-015 6.49777e-015
LeftArm  14.6481 -5.17879 -40.8355
LeftForeArm  -51.8244 -29.3779 3.86969
LeftHand  -4.14809 -11.5179 -13.2193
RightShoulder  -4.77083e-015 -6.36111e-015 -3.18055e-015
RightArm  51.2814 -40.0404 -25.3301
RightForeArm  -82.9274 4.50303 -23.4926
RightHand  -1.80491 9.38195 3.64633
LeftUpLeg  49.9328 22.692 9.80155
LeftLeg  -17.3291 -7.00023 -1.83342
LeftFoot  -9.77939 1.06083 -4.92553
LeftToes  9.54166e-015 4.2066e-011 -8.07781e-011
661
root  -1.91707 37.9149 -46.8451 -5.63073 -31.9123 5.42802
RightUpLeg  -8.84447 14.6901 -5.23772
RightLeg  -83.3161 -13.4803 2.6535
RightFoot  27.7217 5.05321 -17.3134
RightToes  -1.27222e-014 -6.36111e-015 6.36111e-015
Spine  -38.7375 -21.0818 -16.1324
Spine1  6.44466 -13.9034 44.9187
HEad  6.86226 18.4974 -16.4259
LeftShoulder1  6.36111e-015 -1.33558e-015 6.49777e-015
LeftArm  14.0614 -4.44433 -39.7088
LeftForeArm  -50.4155 -27.1526 1.6678
LeftHand  -4.2602 -11.9553 -13.4057
RightShoulder  -4.77083e-015 -6.36111e-015 -3.18055e-015
RightArm  55.2928 -38.6055 -29.5108
RightForeArm  -83.6846 5.14564 -25.3113
RightHand  -1.57821 8.0114 3.15182
LeftUpLeg  50.7315 21.8592 9.45742
LeftLeg  -21.0045 -7.11471 -2.24091
LeftFoot  -7.62504 1.19213 -5.11177
LeftToes  9.54166e-015 4.2066e-011 -8.07781e-011
662
root  -2.36964 38.1573 -46.3121 -4.0277 -31.325 4.84394
RightUpLeg  -8.28507 13.7066 -5.47546
RightLeg  -97.2449 -11.4106 2.59785
RightFoot  27.4417 5.17543 -17.4412
RightToes  -1.27222e-014 -6.36111e-015 6.36111e-015
Spine  -39.7171 -19.6225 -14.0532
Spine1  6.87124 -13.6503 46.0829
HEad  4.99436 18.8888 -17.7343
LeftShoulder1  6.36111e-015 -1.33558e-015 6.49777e-015
LeftArm  13.7423 -4.10208 -38.6521
LeftForeArm  -48.8708 -26.5256 1.42045
LeftHand  -4.1648 -11.5919 -13.3288
RightShoulder  -4.77083e-015 -6.36111e-015 -3.18055e-015
RightArm  58.6858 -37.6953 -33.2632
RightForeArm  -83.2866 5.28141 -26.0663
RightHand  -1.26944 6.44137 2.08854
LeftUpLeg  52.1333 21.0114 9.82811
LeftLeg  -24.7667 -7.89224 -2.2525
LeftFoot  -5.46422 1.37804 -5.48672
LeftToes  9.54166e-015 4.2066e-011 -8.07781e-011
663
root  -3.01861 38.2029 -45.755 -3.17897 -31.035 4.15212
RightUpLeg  -6.80942 12.0765 -4.75894
RightLeg  -106.211 -10.0471 1.33174
RightFoot  25.9534 4.96077 -16.9463
RightToes  -1.27222e-014 -6.36111e-015 6.36111e-015
Spine  -39.6185 -18.0735 -12.2037
Spine1  7.32452 -13.4804 46.5636
HEad  2.98313 19.0117 -19.1469
LeftShoulder1  6.36111e-015 -1.33558e-015 6.49777e-015
LeftArm  13.8987 -4.01089 -37.7911
LeftForeArm  -45.9582 -27.6638 3.18766
LeftHand  -3.89084 -10.5399 -12.8782
RightShoulder  -4.77083e-015 -6.36111e-015 -3.18055e-015
RightArm  61.797 -37.3877 -37.1804
RightForeArm  -83.0637 5.10926 -25.5536
RightHand  -0.840714 4.68091 0.342996
LeftUpLeg  54.2457 20.2042 10.9013
LeftLeg  -26.887 -8.61543 -1.84285
LeftFoot  -4.8582 1.62828 -6.37173
LeftToes  9.54166e-015 4.2066e-011 -8.07781e-011
664
root  -3.83287 38.1305 -45.0955 -2.90875 -31.4195 3.41824
RightUpLeg  -5.43056 12.8578 -2.7222
RightLeg  -107.649 -9.75333 1.39605
RightFoot  26.7087 6.03767 -18.5265
RightToes  -1.27222e-014 -6.36111e-015 6.36111e-015
Spine  -38.819 -16.5397 -10.6229
Spine1  7.58321 -13.2445 46.5504
HEad  1.78364 19.0875 -20.1676
LeftShoulder1  6.36111e-015 -1.33558e-015 6.49777e-015
LeftArm  14.583 -4.20228 -37.3532
LeftForeArm  -41.1871 -29.0728 5.02605
LeftHand  -3.55051 -9.27361 -12.3081
RightShoulder  -4.77083e-015 -6.36111e-015 -3.18055e-015
RightArm  64.2735 -37.3905 -40.6499
RightForeArm  -82.5913 4.95997 -25.2852
RightHand  -0.239039 2.50344 -1.78208
LeftUpLeg  56.6018 19.4417 12.1676
LeftLeg  -27.4174 -8.5525 -1.51695
LeftFoot  -4.87619 1.91256 -7.51103
LeftToes  9.54166e-015 4.2066e-011 -8.07781e-011
665
root  -4.80658 38.0016 -44.3307 -2.63218 -32.2318 2.80028
RightUpLeg  -4.82304 14.7138 0.13654
RightLeg  -103.523 -11.4205 -0.804798
RightFoot  31.4214 7.28749 -20.6017
RightToes  -1.27222e-014 -6.36111e-015 6.36111e-015
Spine  -38.3597 -15.7111 -9.61097
Spine1  7.68587 -13.2569 46.5995
HEad  1.82024 19.7432 -20.6908
LeftShoulder1  6.36111e-015 -1.33558e-015 6.49777e-015
LeftArm  15.9601 -4.23483 -37.4278
LeftForeArm  -34.2239 -30.6909 6.28859
LeftHand  -3.05701 -7.50844 -11.7204
RightShoulder  -4.77083e-015 -6.36111e-015 -3.18055e-015
RightArm  65.4308 -37.6146 -42.609
RightForeArm  -80.7005 5.01153 -26.4104
RightHand  0.316006 0.574615 -3.29358
LeftUpLeg  58.2356 18.7005 13.4178
LeftLeg  -25.8915 -8.18214 -1.27347
LeftFoot  -4.72644 2.31403 -9.06396
LeftToes  9.54166e-015 4.2066e-011 -8.07781e-011
666
root  -5.92156 37.8552 -43.5202 -2.01915 -33.0941 1.98269
RightUpLeg  -4.65188 19.8907 2.78075
RightLeg  -97.8559 -11.7882 -2.75117
RightFoot  35.9644 6.52816 -20.025
RightToes  -1.27222e-014 -6.36111e-015 6.36111e-015
Spine  -38.6206 -15.5933 -8.99157
Spine1  7.57513 -13.6507 47.4526
HEad  3.15708 21.142 -20.7976
LeftShoulder1  6.36111e-015 -1.33558e-015 6.49777e-015
LeftArm  18.4229 -3.87628 -38.2773
LeftForeArm  -24.909 -32.7389 6.46912
LeftHand  -2.33091 -4.94654 -11.5187
RightShoulder  -4.77083e-015 -6.36111e-015 -3.18055e-015
RightArm  65.5422 -38.0519 -43.2743
RightForeArm  -77.915 5.51541 -29.01
RightHand  0.568082 -0.362261 -3.75832
LeftUpLeg  59.1288 17.4931 14.7794
LeftLeg  -22.5803 -8.23779 -1.04115
LeftFoot  -4.28856 3.04386 -11.767
LeftToes  9.54166e-015 4.2066e-011 -8.07781e-011
667
root  -7.0811 37.7503 -42.6723 -1.30617 -33.7297 0.640687
RightUpLeg  -4.34361 22.5282 5.3078
RightLeg  -92.2019 -11.541 -3.62484
RightFoot  35.0464 4.56149 -17.6288
RightToes  -1.27222e-014 -6.36111e-015 6.36111e-015
Spine  -38.8261 -15.6339 -8.31982
Spine1  6.98039 -14.1887 49.5467
HEad  5.52494 22.7808 -20.429
LeftShoulder1  6.36111e-015 -1.33558e-015 6.49777e-015
LeftArm  22.2929 -3.90304 -40.6334
LeftForeArm  -14.3705 -33.0609 4.33292
LeftHand  -1.63736 -2.28089 -12.4883
RightShoulder  -4.77083e-015 -6.36111e-015 -3.18055e-015
RightArm  65.3437 -38.444 -43.295
RightForeArm  -75.7026 6.47592 -32.432
RightHand  0.647201 -0.708925 -3.81304
LeftUpLeg  59.5774 15.6533 16.302
LeftLeg  -18.0274 -8.403 -1.00838
LeftFoot  -2.87589 4.05537 -14.9391
LeftToes  9.54166e-015 4.2066e-011 -8.07781e-011
